<?xml version="1.0" encoding="UTF-8"?>
<svg version="1.1" xmlns="http://www.w3.org/2000/svg" width="200" height="200">
<path d="M0 0 C66 0 132 0 200 0 C200 66 200 132 200 200 C134 200 68 200 0 200 C0 134 0 68 0 0 Z " fill="#EBEFF0" transform="translate(0,0)"/>
<path d="M0 0 C1.08853271 -0.01015137 2.17706543 -0.02030273 3.29858398 -0.03076172 C15.97352048 0.10582787 28.46763085 3.33946268 38.0625 12 C47.67569901 22.52781511 47.60338952 34.9493356 47.75 48.4375 C49.07 48.1075 50.39 47.7775 51.75 47.4375 C55.74198605 51.71462791 58.40632432 56.74954772 59.75 62.4375 C59.4662865 67.80338576 57.93699588 71.53870481 55.3125 76.1875 C54.38630859 77.85039062 54.38630859 77.85039062 53.44140625 79.546875 C52.27113416 81.54687811 51.03536726 83.50944911 49.75 85.4375 C48.43 85.4375 47.11 85.4375 45.75 85.4375 C45.72421875 86.22511719 45.6984375 87.01273437 45.671875 87.82421875 C45.01664008 100.40770746 42.03426135 115.15323865 32.75 124.4375 C32.29188325 126.40985333 32.29188325 126.40985333 32.125 128.5625 C31.939375 130.480625 31.939375 130.480625 31.75 132.4375 C34.06 133.0975 36.37 133.7575 38.75 134.4375 C38.70939453 136.03078125 38.70939453 136.03078125 38.66796875 137.65625 C38.85183382 142.25886042 39.14881659 146.51743454 41.75 150.4375 C47.37154777 154.27933026 54.2224319 155.9543618 60.75634766 157.61645508 C61.41425293 157.8873999 62.0721582 158.15834473 62.75 158.4375 C63.08 159.4275 63.41 160.4175 63.75 161.4375 C65.74353836 161.927141 67.74434477 162.39377222 69.76171875 162.7734375 C73.46201318 163.59572515 77.02591804 164.76235002 80.625 165.9375 C86.95719155 167.98141175 93.15729404 169.43028103 99.75 170.4375 C99.75 175.3875 99.75 180.3375 99.75 185.4375 C33.75 185.4375 -32.25 185.4375 -100.25 185.4375 C-100.25 180.4875 -100.25 175.5375 -100.25 170.4375 C-98.84621094 170.17839844 -97.44242187 169.91929687 -95.99609375 169.65234375 C-89.9904231 168.44866888 -84.1698431 166.77872895 -78.3125 165 C-76.77239258 164.55043945 -76.77239258 164.55043945 -75.20117188 164.09179688 C-74.21826172 163.79466797 -73.23535156 163.49753906 -72.22265625 163.19140625 C-71.33843994 162.92658447 -70.45422363 162.6617627 -69.54321289 162.38891602 C-67.10424769 161.37702978 -66.08319146 160.28256061 -64.25 158.4375 C-61.88989258 157.36254883 -61.88989258 157.36254883 -59.14453125 156.39453125 C-58.16162109 156.04326172 -57.17871094 155.69199219 -56.16601562 155.33007812 C-55.14185547 154.97365234 -54.11769531 154.61722656 -53.0625 154.25 C-52.02673828 153.88197266 -50.99097656 153.51394531 -49.92382812 153.13476562 C-47.36847788 152.22802844 -44.81059808 151.32928685 -42.25 150.4375 C-42.16363281 149.46167969 -42.07726563 148.48585937 -41.98828125 147.48046875 C-41.84777344 146.20816406 -41.70726562 144.93585938 -41.5625 143.625 C-41.43488281 142.36042969 -41.30726562 141.09585938 -41.17578125 139.79296875 C-40.25 136.4375 -40.25 136.4375 -37.79296875 134.55078125 C-36.95378906 134.18339844 -36.11460938 133.81601563 -35.25 133.4375 C-34.59 133.1075 -33.93 132.7775 -33.25 132.4375 C-32.44613869 126.27456332 -34.356916 123.18263075 -37.65625 118.046875 C-43.8906609 107.83955519 -45.6460956 97.21034145 -45.25 85.4375 C-46.39275391 85.31568359 -46.39275391 85.31568359 -47.55859375 85.19140625 C-52.33020909 83.85479992 -53.88210682 79.52632102 -56.25 75.4375 C-56.68054687 74.7465625 -57.11109375 74.055625 -57.5546875 73.34375 C-59.84713225 69.35963912 -60.83195108 66.28961818 -59.9375 61.59375 C-58.31236199 56.49672624 -56.05796234 51.24546234 -52.25 47.4375 C-50.125 47.8125 -50.125 47.8125 -48.25 48.4375 C-48.23582031 47.13296875 -48.22164062 45.8284375 -48.20703125 44.484375 C-47.9444494 32.86179012 -47.12329974 22.75810242 -40 13.0625 C-28.45121639 2.0386611 -15.44693323 0.10266646 0 0 Z " fill="#EDC4AE" transform="translate(100.25,14.5625)"/>
<path d="M0 0 C2.95454494 0.41644179 5.41059288 1.30500899 8.1953125 2.37109375 C17.44760737 5.72044825 27.36774492 5.64636523 36.6328125 2.37109375 C40.04147788 1.88414155 43.23088402 1.79843579 46.6328125 2.37109375 C49.45705538 4.56132293 51.04789853 6.20126582 52.6328125 9.37109375 C52.99609905 12.40008561 53.10137451 15.45015412 53.2578125 18.49609375 C53.309375 19.32625 53.3609375 20.15640625 53.4140625 21.01171875 C53.69505777 26.28451241 53.44040492 31.15187709 52.6328125 36.37109375 C54.9428125 37.03109375 57.2528125 37.69109375 59.6328125 38.37109375 C59.59220703 39.964375 59.59220703 39.964375 59.55078125 41.58984375 C59.73464632 46.19245417 60.03162909 50.45102829 62.6328125 54.37109375 C68.25436027 58.21292401 75.1052444 59.88795555 81.63916016 61.55004883 C82.62601807 61.95646606 82.62601807 61.95646606 83.6328125 62.37109375 C83.9628125 63.36109375 84.2928125 64.35109375 84.6328125 65.37109375 C86.62635086 65.86073475 88.62715727 66.32736597 90.64453125 66.70703125 C94.34482568 67.5293189 97.90873054 68.69594377 101.5078125 69.87109375 C107.84000405 71.9150055 114.04010654 73.36387478 120.6328125 74.37109375 C120.6328125 79.32109375 120.6328125 84.27109375 120.6328125 89.37109375 C54.6328125 89.37109375 -11.3671875 89.37109375 -79.3671875 89.37109375 C-79.3671875 84.42109375 -79.3671875 79.47109375 -79.3671875 74.37109375 C-77.96339844 74.11199219 -76.55960937 73.85289062 -75.11328125 73.5859375 C-69.1076106 72.38226263 -63.2870306 70.7123227 -57.4296875 68.93359375 C-56.40294922 68.63388672 -55.37621094 68.33417969 -54.31835938 68.02539062 C-53.33544922 67.72826172 -52.35253906 67.43113281 -51.33984375 67.125 C-50.45562744 66.86017822 -49.57141113 66.59535645 -48.66040039 66.32250977 C-46.22143519 65.31062353 -45.20037896 64.21615436 -43.3671875 62.37109375 C-41.00708008 61.29614258 -41.00708008 61.29614258 -38.26171875 60.328125 C-37.27880859 59.97685547 -36.29589844 59.62558594 -35.28320312 59.26367188 C-34.25904297 58.90724609 -33.23488281 58.55082031 -32.1796875 58.18359375 C-30.62604492 57.63155273 -30.62604492 57.63155273 -29.04101562 57.06835938 C-26.48566538 56.16162219 -23.92778558 55.2628806 -21.3671875 54.37109375 C-21.28082031 53.39527344 -21.19445313 52.41945312 -21.10546875 51.4140625 C-20.96496094 50.14175781 -20.82445312 48.86945313 -20.6796875 47.55859375 C-20.55207031 46.29402344 -20.42445312 45.02945313 -20.29296875 43.7265625 C-19.3671875 40.37109375 -19.3671875 40.37109375 -16.91015625 38.484375 C-16.07097656 38.11699219 -15.23179688 37.74960938 -14.3671875 37.37109375 C-13.7071875 37.04109375 -13.0471875 36.71109375 -12.3671875 36.37109375 C-12.47546875 34.95570313 -12.47546875 34.95570313 -12.5859375 33.51171875 C-12.87838833 29.46614892 -13.13453364 25.42044893 -13.3671875 21.37109375 C-13.43550781 20.23027344 -13.50382812 19.08945313 -13.57421875 17.9140625 C-13.78086335 11.82952692 -13.62452715 8.11498651 -9.3671875 3.37109375 C-8.90828125 2.83484375 -8.449375 2.29859375 -7.9765625 1.74609375 C-5.54475145 -0.33157006 -3.07983447 -0.08417554 0 0 Z " fill="#E7E8E9" transform="translate(79.3671875,110.62890625)"/>
<path d="M0 0 C2.31 0.66 4.62 1.32 7 2 C6.95939453 3.59328125 6.95939453 3.59328125 6.91796875 5.21875 C7.10183382 9.82136042 7.39881659 14.07993454 10 18 C15.62154777 21.84183026 22.4724319 23.5168618 29.00634766 25.17895508 C29.66425293 25.4498999 30.3221582 25.72084473 31 26 C31.495 27.485 31.495 27.485 32 29 C33.99353836 29.489641 35.99434477 29.95627222 38.01171875 30.3359375 C41.71201318 31.15822515 45.27591804 32.32485002 48.875 33.5 C55.20719155 35.54391175 61.40729404 36.99278103 68 38 C68 42.95 68 47.9 68 53 C27.74 53 -12.52 53 -54 53 C-52.34787737 49.69575474 -51.00985224 47.63998539 -48.625 44.9375 C-48.03976563 44.26589844 -47.45453125 43.59429687 -46.8515625 42.90234375 C-43.55739358 39.51782843 -40.44453235 37.60497002 -36 36 C-45.32070795 28.31784525 -54.64361062 20.6386937 -64 13 C-59.62611497 13 -57.39480621 15.68665431 -54.1875 18.375 C-52.84178152 19.4711333 -51.49407758 20.56483297 -50.14453125 21.65625 C-49.4582666 22.21183594 -48.77200195 22.76742187 -48.06494141 23.33984375 C-44.87353461 25.90564727 -41.65384766 28.42193292 -38.375 30.875 C-37.8080542 31.32149902 -37.2411084 31.76799805 -36.65698242 32.22802734 C-34.86598718 33.61036863 -34.86598718 33.61036863 -32 35 C-27.44566813 34.23398088 -24.73770734 31.13096973 -21.5 28 C-18.28159754 24.89825062 -15.10604504 21.9840357 -11.3984375 19.47265625 C-4.82418585 15.21068407 -4.82418585 15.21068407 -0.73828125 8.70703125 C-0.25046954 5.75594339 0.02566831 2.98779103 0 0 Z " fill="#2495A8" transform="translate(132,147)"/>
<path d="M0 0 C2.95454494 0.41644179 5.41059288 1.30500899 8.1953125 2.37109375 C17.44760737 5.72044825 27.36774492 5.64636523 36.6328125 2.37109375 C40.04147788 1.88414155 43.23088402 1.79843579 46.6328125 2.37109375 C49.81370486 4.83790823 52.29356594 7.08356747 52.90161133 11.18359375 C54.51513985 29.93484613 54.51513985 29.93484613 49.6328125 38.37109375 C48.96153624 39.70211231 48.29349345 41.03478432 47.6328125 42.37109375 C46.9728125 42.37109375 46.3128125 42.37109375 45.6328125 42.37109375 C45.37886719 43.1290625 45.12492187 43.88703125 44.86328125 44.66796875 C42.73942474 49.33371067 39.2743813 51.40687191 34.6328125 53.37109375 C29.6226987 54.19717247 24.70323926 54.33732842 19.6328125 54.37109375 C18.83230469 54.42007813 18.03179687 54.4690625 17.20703125 54.51953125 C10.87766468 54.84931788 5.35219581 52.95213056 -0.0546875 49.80859375 C-3.00992799 46.69361053 -4.95778691 43.25927476 -7.03515625 39.515625 C-8.18748773 37.24268233 -8.18748773 37.24268233 -10.3671875 36.37109375 C-13.33260014 27.82372791 -14.30373133 18.36950809 -13.3671875 9.37109375 C-11.5546875 5.80859375 -11.5546875 5.80859375 -9.3671875 3.37109375 C-8.90828125 2.83484375 -8.449375 2.29859375 -7.9765625 1.74609375 C-5.54475145 -0.33157006 -3.07983447 -0.08417554 0 0 Z " fill="#6A6069" transform="translate(79.3671875,110.62890625)"/>
<path d="M0 0 C0.99 0.99 0.99 0.99 2 2 C0.948125 1.95875 -0.10375 1.9175 -1.1875 1.875 C-4.79304157 1.99321448 -6.76818463 2.58224334 -10 4 C-8.49759766 4.29003906 -8.49759766 4.29003906 -6.96484375 4.5859375 C-5.62236492 4.84880049 -4.27991873 5.11183026 -2.9375 5.375 C-2.28072266 5.50132813 -1.62394531 5.62765625 -0.94726562 5.7578125 C3.44784965 6.62384507 7.70786171 7.71626553 12 9 C12 10.65 12 12.3 12 14 C11.34 14.33 10.68 14.66 10 15 C9.68234862 16.86473124 9.44607679 18.74359656 9.25 20.625 C8.33207681 26.65604224 6.71906137 30.12969067 2 34 C-2.7554668 37.27598824 -7.37166665 37.91106115 -13 37 C-18.61356441 34.08526463 -22.80329545 30.15406819 -25.875 24.625 C-27.12638937 20.59274537 -26.91613851 18.08098063 -26 14 C-28.97 14 -31.94 14 -35 14 C-34.731875 14.78375 -34.46375 15.5675 -34.1875 16.375 C-33.90718898 21.79434645 -36.03884545 25.54382352 -39 30 C-43.17858781 34.53440642 -46.51644884 36.83714419 -52.8125 37.25 C-58.26620029 37.16010384 -61.6507627 35.1652504 -65.75 31.625 C-69.73761092 26.97278726 -70.26270827 22.83310505 -70.65625 16.890625 C-70.82640625 15.95476562 -70.82640625 15.95476562 -71 15 C-71.66 14.67 -72.32 14.34 -73 14 C-73 12.02 -73 10.04 -73 8 C-51.80715364 2.80233841 -51.80715364 2.80233841 -44.2578125 7.00390625 C-39.70614164 9.40281766 -35.81764865 9.53547554 -30.75 9.375 C-29.96109375 9.37371094 -29.1721875 9.37242188 -28.359375 9.37109375 C-24.45491187 9.31173536 -21.3475164 9.249675 -18 7 C-18.495 6.01 -18.495 6.01 -19 5 C-12.52754829 1.66859103 -7.36017488 -0.93674953 0 0 Z " fill="#38251F" transform="translate(131,62)"/>
<path d="M0 0 C0.33 0 0.66 0 1 0 C1.00386719 1.78664062 1.00386719 1.78664062 1.0078125 3.609375 C1.37970815 19.92319763 4.41780048 32.28306891 8 49 C-14.44 49 -36.88 49 -60 49 C-60 44.05 -60 39.1 -60 34 C-58.59621094 33.74089844 -57.19242188 33.48179687 -55.74609375 33.21484375 C-49.7404231 32.01116888 -43.9198431 30.34122895 -38.0625 28.5625 C-37.03576172 28.26279297 -36.00902344 27.96308594 -34.95117188 27.65429688 C-33.96826172 27.35716797 -32.98535156 27.06003906 -31.97265625 26.75390625 C-31.08843994 26.48908447 -30.20422363 26.2242627 -29.29321289 25.95141602 C-26.85424769 24.93952978 -25.83319146 23.84506061 -24 22 C-21.63989258 20.92504883 -21.63989258 20.92504883 -18.89453125 19.95703125 C-17.91162109 19.60576172 -16.92871094 19.25449219 -15.91601562 18.89257812 C-14.89185547 18.53615234 -13.86769531 18.17972656 -12.8125 17.8125 C-11.25885742 17.26045898 -11.25885742 17.26045898 -9.67382812 16.69726562 C-7.11857452 15.79056273 -4.55962884 14.89427697 -2 14 C-1.34 9.38 -0.68 4.76 0 0 Z " fill="#2197AB" transform="translate(60,151)"/>
<path d="M0 0 C4.68901606 0.04186621 9.00641559 0.89865287 13.375 2.5625 C22.0730958 5.61736755 30.25832202 3.99031359 38.95703125 1.65625 C42.08088669 0.98255589 44.81442735 0.81398116 48 1 C48.495 1.495 48.495 1.495 49 2 C48.72571331 10.64003068 46.07263841 17.40276478 40.4375 24 C33.78176156 29.46111872 26.1973137 28.64436595 18 28 C11.00669356 26.23315859 5.64716797 20.89656878 1.67578125 15.05078125 C-1.01996535 10.2362724 -1.48034954 6.47598478 -1 1 C-0.67 0.67 -0.34 0.34 0 0 Z " fill="#EDC3AE" transform="translate(76,115)"/>
<path d="M0 0 C2.475 0.495 2.475 0.495 5 1 C8.87088991 17.85916516 3.92286708 34.61472673 0 51 C-8.09559117 51.7439721 -8.09559117 51.7439721 -11.48828125 48.953125 C-12.09027344 48.06109375 -12.69226563 47.1690625 -13.3125 46.25 C-17.70020477 39.95819694 -20.29995538 36.77693337 -28 35 C-22.82162306 28.03597583 -15.94723099 22.76799573 -8.875 17.80859375 C-3.21623233 13.87711218 -3.21623233 13.87711218 -0.08984375 7.98828125 C0.15761736 5.26620901 0.21875017 2.72165911 0 0 Z " fill="#E4E7E8" transform="translate(133,149)"/>
<path d="M0 0 C0.33 0 0.66 0 1 0 C1.04447888 2.68850094 1.05730542 5.36975974 1.01953125 8.05859375 C0.95257787 10.87337235 0.95257787 10.87337235 1.19921875 13.16015625 C1.26266973 15.53712752 1.04240973 16.84012703 0 19 C-3.19521525 22.25890725 -6.70339876 25.01079395 -10.34375 27.74316406 C-12.91398064 29.69356904 -15.38884141 31.75663809 -17.875 33.8125 C-18.76574219 34.53953125 -19.65648437 35.2665625 -20.57421875 36.015625 C-23.39821451 38.32575357 -26.20336348 40.6568721 -29 43 C-34.17808962 41.39265587 -37.98424203 38.16886802 -42.1875 34.875 C-42.9398291 34.29331055 -43.6921582 33.71162109 -44.46728516 33.11230469 C-49.4114658 29.27899671 -54.30133644 25.38425758 -59.1171875 21.390625 C-61.05385241 19.8102419 -61.05385241 19.8102419 -64 19 C-64.33 16.03 -64.66 13.06 -65 10 C-66.65 10.33 -68.3 10.66 -70 11 C-69 9 -69 9 -66.5625 8.125 C-63.86394485 7.22949848 -63.86394485 7.22949848 -62.6875 4.875 C-62.460625 4.25625 -62.23375 3.6375 -62 3 C-62 4.32 -62 5.64 -62 7 C-61.01 7.33 -60.02 7.66 -59 8 C-57.87101496 9.72920494 -56.81825367 11.50883249 -55.8125 13.3125 C-52.57299945 18.53771951 -49.99730592 21.41948255 -44 23 C-40.66000209 23.61611612 -37.39156155 23.8783059 -34 24 C-33.24589844 24.03996094 -32.49179688 24.07992187 -31.71484375 24.12109375 C-23.50562563 24.36722551 -15.42988453 23.48892582 -9 18 C-7.26509754 15.41556677 -7.26509754 15.41556677 -6 13 C-5.34 12.67 -4.68 12.34 -4 12 C-3.21655744 10.00708223 -2.51983635 7.97948177 -1.875 5.9375 C-1.52179688 4.83277344 -1.16859375 3.72804687 -0.8046875 2.58984375 C-0.53914063 1.73519531 -0.27359375 0.88054687 0 0 Z " fill="#EAC3AD" transform="translate(131,140)"/>
<path d="M0 0 C0.33 0 0.66 0 1 0 C1.00386719 1.78664062 1.00386719 1.78664062 1.0078125 3.609375 C1.28441105 19.219222 4.40687007 33.84732059 8 49 C1.07 49 -5.86 49 -13 49 C-15.64 43.72 -18.28 38.44 -21 33 C-18.03 31.02 -15.06 29.04 -12 27 C-13.98 27.66 -15.96 28.32 -18 29 C-20.0625 26.6875 -20.0625 26.6875 -22 24 C-21 21 -21 21 -19.14233398 20.0168457 C-18.35157471 19.73929443 -17.56081543 19.46174316 -16.74609375 19.17578125 C-15.89208984 18.86962891 -15.03808594 18.56347656 -14.15820312 18.24804688 C-12.81145508 17.78495117 -12.81145508 17.78495117 -11.4375 17.3125 C-10.53580078 16.99216797 -9.63410156 16.67183594 -8.70507812 16.34179688 C-6.47371615 15.55078496 -4.2373047 14.77404381 -2 14 C-1.34 9.38 -0.68 4.76 0 0 Z " fill="#2698AC" transform="translate(60,151)"/>
<path d="M0 0 C7.96831811 0.72127017 15.31205631 3.62978242 22.83984375 6.20507812 C28.4181078 8.05668678 33.10759225 9.53336449 39 9 C39 13.29 39 17.58 39 22 C24.48 22 9.96 22 -5 22 C-3.60863728 17.82591183 -2.20818227 14.08081438 -0.375 10.125 C0.07101563 9.15820312 0.51703125 8.19140625 0.9765625 7.1953125 C1.31429687 6.47085938 1.65203125 5.74640625 2 5 C0.68 4.67 -0.64 4.34 -2 4 C-1.34 2.68 -0.68 1.36 0 0 Z " fill="#2197AB" transform="translate(161,178)"/>
<path d="M0 0 C5.89527167 0.04193791 9.07590546 0.19040801 13.3125 4.3125 C13.93125 4.869375 14.55 5.42625 15.1875 6 C16.99950354 9.72467394 16.93287059 13.25894218 16.3125 17.3125 C13.89018778 22.4478019 10.55835203 25.34253869 5.3125 27.3125 C-0.50570748 28.15878472 -5.00145523 26.73067552 -9.6875 23.3125 C-12.47179934 20.44451954 -13.57652028 17.79222954 -13.875 13.8125 C-13.65490311 9.19046526 -13.16896489 6.9022945 -10.1875 3.25 C-9.3625 2.610625 -8.5375 1.97125 -7.6875 1.3125 C-5.77348477 -0.60151523 -2.54899652 0.05060704 0 0 Z " fill="#A8AFC1" transform="translate(76.6875,69.6875)"/>
<path d="M0 0 C3.06680475 2.18069928 4.358767 3.94086538 5.1484375 7.64453125 C5.43923714 13.85395892 4.51825368 18.21281038 0.59375 23.04296875 C-4.32343601 26.1899678 -8.28607881 26.48379535 -14.03515625 25.6875 C-18.39997239 24.50101785 -21.19920144 22.06863848 -23.53515625 18.1484375 C-25.05617428 14.47207554 -25.0746968 10.93886574 -24.40625 7.04296875 C-19.6685931 -1.88496637 -8.93211839 -3.55254709 0 0 Z " fill="#B9B5BE" transform="translate(132.40625,70.95703125)"/>
<path d="M0 0 C0.33 0 0.66 0 1 0 C1.32144504 4.68692128 1.63232433 9.37449492 1.9375 14.0625 C1.98423859 14.77518036 2.03097717 15.48786072 2.07913208 16.22213745 C2.60403726 24.31259004 3.05476931 32.39426678 3.25 40.5 C3.26720596 41.18202988 3.28441193 41.86405975 3.30213928 42.5667572 C3.38102447 45.80439425 3.44325331 49.0411565 3.48217773 52.27954102 C3.729513 63.9295854 4.94423699 75.5084702 10.75 85.8125 C11.88198993 87.8487014 12.98096569 89.90498534 14 92 C13.67 92.66 13.34 93.32 13 94 C4.88946433 82.10011569 1.51784067 70.33084665 2 56 C1.23816406 55.91878906 0.47632813 55.83757812 -0.30859375 55.75390625 C-5.08020909 54.41729992 -6.63210682 50.08882102 -9 46 C-9.43054687 45.3090625 -9.86109375 44.618125 -10.3046875 43.90625 C-12.59713225 39.92213912 -13.58195108 36.85211818 -12.6875 32.15625 C-11.06236199 27.05922624 -8.80796234 21.80796234 -5 18 C-3.68 18.33 -2.36 18.66 -1 19 C-0.67 12.73 -0.34 6.46 0 0 Z " fill="#DDA789" transform="translate(53,44)"/>
<path d="M0 0 C0.33 0 0.66 0 1 0 C1.33 5.61 1.66 11.22 2 17 C3.32 16.67 4.64 16.34 6 16 C9.99198605 20.27712791 12.65632432 25.31204772 14 31 C13.7162865 36.36588576 12.18699588 40.10120481 9.5625 44.75 C8.94503906 45.85859375 8.32757813 46.9671875 7.69140625 48.109375 C6.52113416 50.10937811 5.28536726 52.07194911 4 54 C1.375 54.1875 1.375 54.1875 -1 54 C-1.02502598 48.55973634 -1.0430116 43.11950741 -1.05493164 37.67919922 C-1.05990958 35.83479223 -1.06669434 33.99038907 -1.07543945 32.14599609 C-1.12516284 21.37649618 -0.99810215 10.73269254 0 0 Z " fill="#DEA88A" transform="translate(146,46)"/>
<path d="M0 0 C0.87140625 0.00322266 1.7428125 0.00644531 2.640625 0.00976562 C3.50429687 -0.00634766 4.36796875 -0.02246094 5.2578125 -0.0390625 C6.51078125 -0.0400293 6.51078125 -0.0400293 7.7890625 -0.04101562 C8.55138184 -0.04399658 9.31370117 -0.04697754 10.09912109 -0.05004883 C12.265625 0.32226562 12.265625 0.32226562 16.265625 3.32226562 C15.605625 6.62226563 14.945625 9.92226562 14.265625 13.32226562 C7.335625 13.32226562 0.405625 13.32226562 -6.734375 13.32226562 C-8.85402308 9.08296947 -9.07815294 6.96326775 -8.734375 2.32226562 C-5.921765 -0.49034437 -3.84401133 0.03272765 0 0 Z " fill="#1D2324" transform="translate(97.734375,186.677734375)"/>
<path d="M0 0 C0.103125 0.639375 0.20625 1.27875 0.3125 1.9375 C0.539375 2.618125 0.76625 3.29875 1 4 C1.99 4.33 2.98 4.66 4 5 C5.12898504 6.72920494 6.18174633 8.50883249 7.1875 10.3125 C10.4331194 15.54758903 13.0010195 18.40173147 19 20 C27.15163214 21.64767033 35.7239924 21.09931209 44 21 C41.23559788 23.76440212 38.0592418 24.2073383 34.375 25.125 C33.66859375 25.30675781 32.9621875 25.48851562 32.234375 25.67578125 C30.49115757 26.1233641 28.74577389 26.56249462 27 27 C28.98 28.32 30.96 29.64 33 31 C31.375 31.8125 31.375 31.8125 29 32 C25.75 29.6875 25.75 29.6875 23 27 C23 26.34 23 25.68 23 25 C22.00419922 24.92652344 22.00419922 24.92652344 20.98828125 24.8515625 C12.61335188 24.14244439 8.3485072 22.38243001 2 17 C1.01 16.67 0.02 16.34 -1 16 C-1.33 13.03 -1.66 10.06 -2 7 C-3.65 7.33 -5.3 7.66 -7 8 C-6 6 -6 6 -3.5 5.125 C-0.81740446 4.27117929 -0.81740446 4.27117929 -0.1875 1.875 C-0.125625 1.25625 -0.06375 0.6375 0 0 Z " fill="#C19075" transform="translate(68,143)"/>
<path d="M0 0 C0.33 0 0.66 0 1 0 C1.3931386 8.75912795 -0.57787419 15.2527846 -4.3125 23.0625 C-4.7036499 23.88339111 -5.0947998 24.70428223 -5.49780273 25.55004883 C-7.54405071 29.64975435 -9.44030007 32.99421219 -13 36 C-13.47050781 35.45730469 -13.94101563 34.91460937 -14.42578125 34.35546875 C-15.04839844 33.64003906 -15.67101562 32.92460937 -16.3125 32.1875 C-16.92738281 31.47980469 -17.54226562 30.77210938 -18.17578125 30.04296875 C-19.73404289 28.29784918 -21.33849818 26.64511216 -23 25 C-22.50072998 24.65743164 -22.00145996 24.31486328 -21.48706055 23.96191406 C-19.2158496 22.39796501 -16.95167157 20.8241209 -14.6875 19.25 C-13.90181641 18.71117187 -13.11613281 18.17234375 -12.30664062 17.6171875 C-11.54931641 17.08867187 -10.79199219 16.56015625 -10.01171875 16.015625 C-9.31522217 15.53383789 -8.61872559 15.05205078 -7.90112305 14.55566406 C-4.35058678 11.65030679 -2.65118634 8.58479386 -1.3125 4.25 C-1.06113281 3.45078125 -0.80976563 2.6515625 -0.55078125 1.828125 C-0.36902344 1.22484375 -0.18726563 0.6215625 0 0 Z " fill="#FDFDFD" transform="translate(136,156)"/>
<path d="M0 0 C3.89577771 1.99576711 5.81887196 4.25627276 8 8 C8.44214844 8.68964844 8.88429687 9.37929687 9.33984375 10.08984375 C10.5 12 10.5 12 12 15 C8.04 15 4.08 15 0 15 C0.33 11.7 0.66 8.4 1 5 C-2.13282992 2.91144672 -2.8505635 2.75061199 -6.4140625 2.76953125 C-7.25710937 2.77146484 -8.10015625 2.77339844 -8.96875 2.77539062 C-9.8453125 2.78763672 -10.721875 2.79988281 -11.625 2.8125 C-12.95144531 2.8134668 -12.95144531 2.8134668 -14.3046875 2.81445312 C-18.4798885 2.46945736 -18.4798885 2.46945736 -22 4 C-22.15031917 7.98345803 -21.97229218 11.11083128 -21 15 C-25.29 15 -29.58 15 -34 15 C-32.34787737 11.69575474 -31.00985224 9.63998539 -28.625 6.9375 C-28.03976563 6.26589844 -27.45453125 5.59429687 -26.8515625 4.90234375 C-19.80747795 -2.33493299 -9.54188012 -1.60447435 0 0 Z " fill="#097385" transform="translate(112,185)"/>
<path d="M0 0 C0.66 0.66 1.32 1.32 2 2 C4.10820797 1.6814823 4.10820797 1.6814823 6 1 C9.99198605 5.27712791 12.65632432 10.31204772 14 16 C13.71168236 21.33694349 12.20764994 25.10776846 9.625 29.75 C9.01914063 30.85859375 8.41328125 31.9671875 7.7890625 33.109375 C6.32794083 35.47013926 5.07294405 37.19412236 3 39 C2.01 38.67 1.02 38.34 0 38 C-0.3125 35.6875 -0.3125 35.6875 0 33 C1.11375 32.4121875 1.11375 32.4121875 2.25 31.8125 C6.54186621 28.98377 7.71761374 24.85637401 9 20 C8.91518031 15.50455665 7.49947053 12.69486948 5 9 C3.35 9.33 1.7 9.66 0 10 C0 6.7 0 3.4 0 0 Z " fill="#ECC3AD" transform="translate(146,61)"/>
<path d="M0 0 C0.33 0 0.66 0 1 0 C1 3.3 1 6.6 1 10 C-0.65 9.67 -2.3 9.34 -4 9 C-7.4609053 13.92916815 -8.57105874 16.93655904 -7.54296875 22.921875 C-6.80122924 25.76076291 -5.86959941 27.72977215 -4 30 C-3.113125 30.474375 -2.22625 30.94875 -1.3125 31.4375 C-0.549375 31.953125 0.21375 32.46875 1 33 C1.3125 36.1875 1.3125 36.1875 1 39 C-1.66660715 38.63793912 -2.76212653 38.27177044 -4.5625 36.21484375 C-6.07074792 33.82541837 -7.55806922 31.43013401 -9 29 C-9.64775391 27.96359375 -9.64775391 27.96359375 -10.30859375 26.90625 C-12.59463289 22.9195243 -13.58194799 19.85210194 -12.6875 15.15625 C-11.06236199 10.05922624 -8.80796234 4.80796234 -5 1 C-2.875 1.375 -2.875 1.375 -1 2 C-0.67 1.34 -0.34 0.68 0 0 Z " fill="#ECC3AD" transform="translate(53,61)"/>
<path d="M0 0 C0.33 0 0.66 0 1 0 C1.38671875 3.140625 1.38671875 3.140625 1 7 C-1.04503632 9.29338405 -2.78695109 10.91773789 -5.1875 12.75 C-5.81156738 13.25587646 -6.43563477 13.76175293 -7.07861328 14.28295898 C-8.38248803 15.33934355 -9.69318752 16.38735483 -11.01025391 17.42724609 C-14.17103658 19.9256218 -17.27608616 22.48811133 -20.375 25.0625 C-20.93985107 25.5152832 -21.50470215 25.96806641 -22.08666992 26.43457031 C-23.44804606 27.55738108 -24.73234801 28.77235696 -26 30 C-26 30.99 -26 31.98 -26 33 C-34.57142857 33.28571429 -34.57142857 33.28571429 -38 31 C-37.34 30.67 -36.68 30.34 -36 30 C-45.32070795 22.31784525 -54.64361062 14.6386937 -64 7 C-59.62611497 7 -57.39480621 9.68665431 -54.1875 12.375 C-52.84178152 13.4711333 -51.49407758 14.56483297 -50.14453125 15.65625 C-49.4582666 16.21183594 -48.77200195 16.76742187 -48.06494141 17.33984375 C-44.87353461 19.90564727 -41.65384766 22.42193292 -38.375 24.875 C-37.8080542 25.32149902 -37.2411084 25.76799805 -36.65698242 26.22802734 C-34.86598718 27.61036863 -34.86598718 27.61036863 -32 29 C-27.44566813 28.23398088 -24.73770734 25.13096973 -21.5 22 C-16.19943765 16.93686392 -10.6012954 12.61290527 -4.6171875 8.38671875 C-1.68397889 5.71180762 -0.89277854 3.81910819 0 0 Z " fill="#1B8495" transform="translate(132,153)"/>
<path d="M0 0 C0 0.66 0 1.32 0 2 C-1.27875 1.95875 -2.5575 1.9175 -3.875 1.875 C-6.01871492 1.75787127 -6.01871492 1.75787127 -8 2 C-10.29827312 3.87938172 -10.29827312 3.87938172 -10.3125 6.9375 C-10.21972348 9.92778146 -10.21972348 9.92778146 -8.875 11.9375 C-6.91494518 13.25902304 -6.91494518 13.25902304 -3.9375 12.9375 C-0.94937961 12.29414584 -0.94937961 12.29414584 0.375 10.1875 C1.18314742 7.73815642 1.18314742 7.73815642 1 4 C1.99 4.33 2.98 4.66 4 5 C5.44878049 11.27804878 5.44878049 11.27804878 3.5625 14.3125 C-0.46238213 16.96303213 -4.40207718 18.30563798 -9.19140625 17.7421875 C-12.58474295 16.9547834 -15.09417872 15.93721418 -18 14 C-16.34734739 8.21571588 -13.71865061 2.89801572 -9 -1 C-5.23375329 -2.25541557 -3.62811066 -1.37061958 0 0 Z " fill="#C4D1E5" transform="translate(82,74)"/>
<path d="M0 0 C-0.18359375 1.8359375 -0.18359375 1.8359375 -1 4 C-11.22610724 10.50588897 -23.12543381 12.23665695 -35 11 C-37.95703125 9.60546875 -37.95703125 9.60546875 -40 8 C-40 7.34 -40 6.68 -40 6 C-39.39115967 6.02618408 -38.78231934 6.05236816 -38.1550293 6.0793457 C-21.88934905 6.84540204 -21.88934905 6.84540204 -7 1 C-4 0 -4 0 0 0 Z " fill="#DB8089" transform="translate(121,118)"/>
<path d="M0 0 C3.53566354 1.61246413 6.54775323 3.71959647 9.6875 6 C10.66074219 6.70125 11.63398437 7.4025 12.63671875 8.125 C15 10 15 10 16 12 C14.2365625 12.495 14.2365625 12.495 12.4375 13 C7.12038071 14.96092342 4.4372006 18.68392026 1 23 C0.0148293 24.01461258 -0.98029394 25.02010228 -2 26 C-1.69078116 24.54096742 -1.37751201 23.08279278 -1.0625 21.625 C-0.88847656 20.81289062 -0.71445313 20.00078125 -0.53515625 19.1640625 C0 17 0 17 1 15 C1.34555498 9.91830907 1.02401636 4.99207975 0 0 Z " fill="#FDFDFD" transform="translate(77,171)"/>
<path d="M0 0 C0.33 0 0.66 0 1 0 C1.32144504 4.68692128 1.63232433 9.37449492 1.9375 14.0625 C1.98423859 14.77518036 2.03097717 15.48786072 2.07913208 16.22213745 C2.60403726 24.31259004 3.05476931 32.39426678 3.25 40.5 C3.26720596 41.18202988 3.28441193 41.86405975 3.30213928 42.5667572 C3.38102447 45.80439425 3.44325331 49.0411565 3.48217773 52.27954102 C3.729513 63.9295854 4.94423699 75.5084702 10.75 85.8125 C11.88198993 87.8487014 12.98096569 89.90498534 14 92 C13.505 92.99 13.505 92.99 13 94 C4.01889164 80.82280002 1.8418192 67.9301085 0.9375 52.25 C0.78290398 49.67169605 0.62546692 47.09356049 0.46484375 44.515625 C0.399021 43.38415039 0.33319824 42.25267578 0.26538086 41.08691406 C0.0273536 38.31817748 -0.39058327 35.70809759 -1 33 C-0.67 33 -0.34 33 0 33 C0 22.11 0 11.22 0 0 Z " fill="#CF9372" transform="translate(53,44)"/>
<path d="M0 0 C0.99 0.33 1.98 0.66 3 1 C3 2.98 3 4.96 3 7 C-1.89357554 10.19580443 -4.98638939 11.84401552 -11 11 C-18.16932321 8.44511391 -18.16932321 8.44511391 -20.23046875 4.859375 C-20.48441406 4.24578125 -20.73835938 3.6321875 -21 3 C-19.83984375 3.25136719 -19.83984375 3.25136719 -18.65625 3.5078125 C-12.12032105 4.78587781 -7.26481794 5.48228635 -1 3 C-0.67 2.01 -0.34 1.02 0 0 Z " fill="#D2BBB4" transform="translate(86,86)"/>
<path d="M0 0 C2.89401051 1.29731506 5.16400267 2.37714667 7 5 C7.55177892 7.67931112 7.77564586 10.26287955 8 13 C3.66576043 15.45149297 -0.10977468 15.69376899 -5 15 C-8.32457203 13.33771398 -10.34853626 12.26460608 -12.0625 8.9375 C-12 7 -12 7 -10.5625 5.25 C-9.7890625 4.63125 -9.7890625 4.63125 -9 4 C-8.690625 4.969375 -8.38125 5.93875 -8.0625 6.9375 C-7.30476658 9.84065792 -7.30476658 9.84065792 -6 11 C-3.66055264 10.71269945 -1.3260857 10.38063221 1 10 C1.11320856 4.91696314 1.11320856 4.91696314 0 0 Z " fill="#C0CFE4" transform="translate(126,75)"/>
<path d="M0 0 C0.99 0.33 1.98 0.66 3 1 C3 1.66 3 2.32 3 3 C4.155 3.226875 5.31 3.45375 6.5 3.6875 C11.05016112 4.68509053 15.44758255 6.06692585 19.875 7.5 C26.18722408 9.53548502 32.41961282 11.06591962 39 12 C39 12.66 39 13.32 39 14 C33.77093385 15.04854209 30.41640002 14.8682205 25.40234375 13.09375 C24.18869141 12.67996094 22.97503906 12.26617187 21.72460938 11.83984375 C20.46167347 11.39483255 19.19930668 10.94820307 17.9375 10.5 C15.45140054 9.61940695 12.96116585 8.75826424 10.46484375 7.90625 C9.367771 7.51759766 8.27069824 7.12894531 7.14038086 6.72851562 C3.7089121 5.93247249 1.40006258 6.18907564 -2 7 C-1.67 6.030625 -1.34 5.06125 -1 4.0625 C0.05173363 1.37850426 0.05173363 1.37850426 0 0 Z " fill="#0C8194" transform="translate(161,173)"/>
<path d="M0 0 C4.30764815 1.56641751 8.06171464 3.68336156 12 6 C11.53874704 11.53503556 10.36639255 16.45979952 7 21 C4.25 22 4.25 22 2 22 C2.36869876 19.12414969 2.77623693 16.51040171 3.9453125 13.84375 C4.97186395 11.48348997 5.73363168 9.5660148 6 7 C4.46573388 4.13113254 2.45791794 2.1058195 0 0 Z " fill="#33A4B7" transform="translate(147,178)"/>
<path d="M0 0 C2.875 0.6875 2.875 0.6875 3.875 1.6875 C4.125 5.125 4.125 5.125 3.875 8.6875 C0.64246204 10.84252531 -0.37650923 11.15606135 -4.125 10.6875 C-6 9.5625 -6 9.5625 -7.125 7.6875 C-7 4.625 -7 4.625 -6.125 1.6875 C-3.125 -0.3125 -3.125 -0.3125 0 0 Z " fill="#9CA0B0" transform="translate(124.125,76.3125)"/>
<path d="M0 0 C0.33 0 0.66 0 1 0 C1 7.92 1 15.84 1 24 C2.32 23.67 3.64 23.34 5 23 C5.86941494 24.23944276 6.72005457 25.49207059 7.5625 26.75 C8.03816406 27.44609375 8.51382813 28.1421875 9.00390625 28.859375 C10 31 10 31 9 35 C7.68 32.36 6.36 29.72 5 27 C3.35 30.96 1.7 34.92 0 39 C-0.33 39 -0.66 39 -1 39 C-1.20638953 12.0423526 -1.20638953 12.0423526 0 0 Z " fill="#D89F80" transform="translate(146,46)"/>
<path d="M0 0 C-1.1446875 0.7734375 -1.1446875 0.7734375 -2.3125 1.5625 C-5.56954816 4.51656693 -6.65666729 6.82859841 -8 11 C-8.25197243 14.79252787 -8.25197243 14.79252787 -8 18 C-8.99 17.67 -9.98 17.34 -11 17 C-11.07347656 16.04287109 -11.07347656 16.04287109 -11.1484375 15.06640625 C-11.22320312 14.24011719 -11.29796875 13.41382812 -11.375 12.5625 C-11.44460937 11.73878906 -11.51421875 10.91507813 -11.5859375 10.06640625 C-11.79089844 9.04353516 -11.79089844 9.04353516 -12 8 C-12.66 7.67 -13.32 7.34 -14 7 C-14 5.02 -14 3.04 -14 1 C-12.41913952 0.63495397 -10.83516093 0.28339494 -9.25 -0.0625 C-8.36828125 -0.25972656 -7.4865625 -0.45695312 -6.578125 -0.66015625 C-4.01320972 -0.99825872 -2.42908361 -0.81158635 0 0 Z " fill="#3B2720" transform="translate(72,69)"/>
<path d="M0 0 C0.33 0 0.66 0 1 0 C1.22544496 13.62689519 1.22544496 13.62689519 0 19 C-2.5 21.5 -2.5 21.5 -5 23 C-5.33 23 -5.66 23 -6 23 C-6 19.7 -6 16.4 -6 13 C-5.34 12.67 -4.68 12.34 -4 12 C-3.21655744 10.00708223 -2.51983635 7.97948177 -1.875 5.9375 C-1.34519531 4.28041016 -1.34519531 4.28041016 -0.8046875 2.58984375 C-0.53914062 1.73519531 -0.27359375 0.88054687 0 0 Z " fill="#E9C2AC" transform="translate(131,140)"/>
<path d="M0 0 C3.75425503 0.34761621 7.36950856 0.9834624 11 2 C11 3.65 11 5.3 11 7 C10.01 7.495 10.01 7.495 9 8 C8.835 9.155 8.67 10.31 8.5 11.5 C8.335 12.655 8.17 13.81 8 15 C7.01 15.495 7.01 15.495 6 16 C5.92523438 15.40832031 5.85046875 14.81664063 5.7734375 14.20703125 C5.03844809 9.78988902 4.43946501 6.84623795 0.875 3.9375 C-0.07375 3.298125 -1.0225 2.65875 -2 2 C-1.34 1.34 -0.68 0.68 0 0 Z " fill="#34211A" transform="translate(132,69)"/>
<path d="M0 0 C0.99 0 1.98 0 3 0 C3.0825 0.61875 3.165 1.2375 3.25 1.875 C3.82958348 4.10486788 3.82958348 4.10486788 5.6875 5.375 C8.93323695 6.2522262 10.95320938 5.24641434 14 4 C11.0330893 7.49048317 8.40154628 8.4848307 4 11 C6.31 16.28 8.62 21.56 11 27 C10.01 27 9.02 27 8 27 C6.80036357 24.56781941 5.61515562 22.13029422 4.4375 19.6875 C3.92413086 18.65206055 3.92413086 18.65206055 3.40039062 17.59570312 C0.88671875 12.33984375 0.88671875 12.33984375 2 9 C2.66 8.34 3.32 7.68 4 7 C2.35 5.35 0.7 3.7 -1 2 C-0.67 1.34 -0.34 0.68 0 0 Z " fill="#047C90" transform="translate(36,173)"/>
<path d="M0 0 C1.32 0.33 2.64 0.66 4 1 C4.33 2.32 4.66 3.64 5 5 C4.34 5 3.68 5 3 5 C3 5.66 3 6.32 3 7 C3.99 6.67 4.98 6.34 6 6 C5.67 6.99 5.34 7.98 5 9 C2.25 9.75 2.25 9.75 -1 10 C-3.4375 8.375 -3.4375 8.375 -5 6 C-4.75 3.25 -4.75 3.25 -4 1 C-2.02 1.495 -2.02 1.495 0 2 C0 1.34 0 0.68 0 0 Z " fill="#9D979F" transform="translate(76,78)"/>
<path d="M0 0 C0.33 0 0.66 0 1 0 C2.84100418 8.31799163 2.84100418 8.31799163 0.94140625 12.1171875 C-2.62340101 16.43199317 -6.57526867 19.64072192 -12.30859375 20.2421875 C-14.60288744 20.30826316 -16.73057322 20.34949172 -19 20 C-19.66 19.34 -20.32 18.68 -21 18 C-17.41657535 17.02270237 -13.90713835 16.63493107 -10.21875 16.28125 C-7.04420749 15.90684207 -7.04420749 15.90684207 -4 15 C-1.92872272 12.00967917 -1.46557058 8.79342349 -0.875 5.25 C-0.70742187 4.26515625 -0.53984375 3.2803125 -0.3671875 2.265625 C-0.24601562 1.51796875 -0.12484375 0.7703125 0 0 Z " fill="#4A3730" transform="translate(137,79)"/>
<path d="M0 0 C3 1 3 1 4.25 3.375 C6.65557664 6.98336496 8.90769084 7.7041021 13 9 C17.84998736 9.42543749 21.47771748 8.76479318 26 7 C25 10 25 10 22.9375 11.1875 C17.83008622 12.60018892 13.719289 12.64051943 8.8125 10.8125 C5.05251271 8.38939708 1.70943576 6.01916333 0.1875 1.6875 C0.125625 1.130625 0.06375 0.57375 0 0 Z " fill="#4B362E" transform="translate(62,87)"/>
<path d="M0 0 C0.66 0 1.32 0 2 0 C2.99 2.97 3.98 5.94 5 9 C1.04 9 -2.92 9 -7 9 C-1.125 1.125 -1.125 1.125 0 0 Z " fill="#DFE4E5" transform="translate(86,191)"/>
<path d="M0 0 C5.87443728 0.64475531 11.25288925 2.14512983 16.875 3.9375 C17.74125 4.20240234 18.6075 4.46730469 19.5 4.74023438 C20.32242188 4.99998047 21.14484375 5.25972656 21.9921875 5.52734375 C22.73839355 5.76187256 23.48459961 5.99640137 24.25341797 6.23803711 C26 7 26 7 27 9 C17.48170417 7.73753842 7.64293038 6.20988093 0 0 Z " fill="#31A2B6" transform="translate(164,179)"/>
<path d="M0 0 C2.89104992 1.29598789 5.03018393 2.49296136 7 5 C7.29296875 7.48046875 7.29296875 7.48046875 7.1875 10.1875 C7.16042969 11.08855469 7.13335937 11.98960938 7.10546875 12.91796875 C7.07066406 13.60503906 7.03585938 14.29210937 7 15 C3.04132548 12.20036008 1.15462692 9.30925385 -1 5 C-0.01 5 0.98 5 2 5 C1.34 4.34 0.68 3.68 0 3 C0 2.01 0 1.02 0 0 Z " fill="#A8AEC0" transform="translate(130,71)"/>
<path d="M0 0 C2.97 0.99 5.94 1.98 9 3 C9 3.66 9 4.32 9 5 C10.32 5.33 11.64 5.66 13 6 C11.1668733 11.99932374 8.92678249 17.44920563 6 23 C5.01 22.67 4.02 22.34 3 22 C6.465 14.575 6.465 14.575 10 7 C8.35 6.030625 6.7 5.06125 5 4.0625 C3.31485062 3.07247474 1.64270642 2.05895896 0 1 C0 0.67 0 0.34 0 0 Z " fill="#057D91" transform="translate(150,177)"/>
<path d="M0 0 C3.1875 0.3125 3.1875 0.3125 5.625 1.9375 C7.1875 4.3125 7.1875 4.3125 6.9375 7.5625 C6.69 8.47 6.4425 9.3775 6.1875 10.3125 C4.8675 10.3125 3.5475 10.3125 2.1875 10.3125 C2.1875 9.6525 2.1875 8.9925 2.1875 8.3125 C2.8475 8.3125 3.5075 8.3125 4.1875 8.3125 C3.5275 6.9925 2.8675 5.6725 2.1875 4.3125 C1.1975 4.8075 1.1975 4.8075 0.1875 5.3125 C-2.30342811 6.55796405 -3.22330733 6.0892578 -5.8125 5.3125 C-3.42613636 0.38068182 -3.42613636 0.38068182 0 0 Z " fill="#9EA2B2" transform="translate(76.8125,74.6875)"/>
<path d="M0 0 C2.27997563 2.27997563 2.45210457 3.26052284 3.0703125 6.3515625 C3.24433594 7.20234375 3.41835937 8.053125 3.59765625 8.9296875 C3.77167969 9.81914062 3.94570312 10.70859375 4.125 11.625 C4.30675781 12.5221875 4.48851563 13.419375 4.67578125 14.34375 C5.1239946 16.5612266 5.5650924 18.77988214 6 21 C4.68 21 3.36 21 2 21 C0.27669093 13.90673679 -0.2494783 7.29031024 0 0 Z " fill="#1D8C9F" transform="translate(62,179)"/>
<path d="M0 0 C-3.2334275 2.80178062 -6.10448769 3.74124175 -10.25 4.6875 C-11.32765625 4.93886719 -12.4053125 5.19023437 -13.515625 5.44921875 C-14.74539063 5.72185547 -14.74539063 5.72185547 -16 6 C-15.67 7.98 -15.34 9.96 -15 12 C-17 10 -17 10 -18 7 C-20.01508358 6.26676204 -20.01508358 6.26676204 -22 6 C-22 5.34 -22 4.68 -22 4 C-21.02160156 3.81824219 -21.02160156 3.81824219 -20.0234375 3.6328125 C-16.16452427 2.89290288 -12.46910327 2.1623819 -8.75 0.875 C-5.70252404 -0.09465144 -3.17845661 -0.15135508 0 0 Z " fill="#128497" transform="translate(22,181)"/>
<path d="M0 0 C0.33 0 0.66 0 1 0 C1.67507066 3.06070934 2.33854922 6.1238209 3 9.1875 C3.19078125 10.05181641 3.3815625 10.91613281 3.578125 11.80664062 C3.75859375 12.64775391 3.9390625 13.48886719 4.125 14.35546875 C4.29257812 15.12528076 4.46015625 15.89509277 4.6328125 16.68823242 C5.02550915 19.16060247 5.06185285 21.50075809 5 24 C4.01 23.67 3.02 23.34 2 23 C0.04596958 15.27111181 -0.22428282 7.94957992 0 0 Z " fill="#34A5B8" transform="translate(59,176)"/>
<path d="M0 0 C0.8353125 0.7734375 0.8353125 0.7734375 1.6875 1.5625 C3.91108235 3.25919193 3.91108235 3.25919193 6.5625 2.8125 C9.21378289 2.04750731 9.21378289 2.04750731 12 0 C12.33 0.66 12.66 1.32 13 2 C14.65 2 16.3 2 18 2 C17.67 3.32 17.34 4.64 17 6 C11.72 6 6.44 6 1 6 C1 5.01 1 4.02 1 3 C0.67 2.01 0.34 1.02 0 0 Z " fill="#DCAA90" transform="translate(93,110)"/>
<path d="M0 0 C0.33 0 0.66 0 1 0 C1.309375 1.423125 1.309375 1.423125 1.625 2.875 C2.68945293 6.20655851 2.68945293 6.20655851 5.6875 7.3125 C9.11653489 8.02418649 12.52293469 8.58275216 16 9 C13.62839852 11.37160148 12.99378878 11.31983352 9.75 11.375 C5.15506813 11.27124347 2.47701378 10.1293124 -1 7 C-2 4.9375 -2 4.9375 -2 3 C-1.34 2.01 -0.68 1.02 0 0 Z " fill="#C3D1E5" transform="translate(116,79)"/>
<path d="M0 0 C-4.47743619 1.49247873 -8.86781233 1.01710722 -13.5546875 0.9375 C-16.53939986 0.99164444 -19.1111021 1.29699823 -22 2 C-22.33 1.34 -22.66 0.68 -23 0 C-14.4958546 -3.64463374 -8.45376458 -4.22688229 0 0 Z " fill="#D69D7F" transform="translate(109,138)"/>
<path d="M0 0 C6.81598387 -0.33278764 11.92122066 -0.24201565 18 3 C16.125 4.0625 16.125 4.0625 14 5 C13.34 4.67 12.68 4.34 12 4 C9.45384991 3.76827173 6.92603775 3.58105471 4.375 3.4375 C3.66859375 3.39431641 2.9621875 3.35113281 2.234375 3.30664062 C0.48981463 3.20055249 -1.25506697 3.09977111 -3 3 C-2.01 2.67 -1.02 2.34 0 2 C0 1.34 0 0.68 0 0 Z " fill="#473734" transform="translate(72,67)"/>
<path d="M0 0 C1.0725 0.31710938 2.145 0.63421875 3.25 0.9609375 C8.78660019 2.34508755 14.31797583 2.45432593 20 2.625 C21.59134766 2.68300781 21.59134766 2.68300781 23.21484375 2.7421875 C25.80973067 2.83569694 28.40462449 2.92144902 31 3 C31 3.33 31 3.66 31 4 C26.66887383 4.36973028 22.33653395 4.70023959 18 5 C17.23171875 5.05671875 16.4634375 5.1134375 15.671875 5.171875 C10.4729667 5.38321274 5.67938605 4.23217978 1 2 C0.67 1.34 0.34 0.68 0 0 Z " fill="#675560" transform="translate(81,160)"/>
<path d="M0 0 C0.66 0.66 1.32 1.32 2 2 C0.4221875 1.938125 0.4221875 1.938125 -1.1875 1.875 C-4.74010173 1.99147875 -6.84866641 2.47208068 -10 4 C-7.69 4.33 -5.38 4.66 -3 5 C-3 5.33 -3 5.66 -3 6 C-5.10277123 6.22197585 -7.20732302 6.42713637 -9.3125 6.625 C-10.48425781 6.74101563 -11.65601562 6.85703125 -12.86328125 6.9765625 C-16 7 -16 7 -19 5 C-12.52754829 1.66859103 -7.36017488 -0.93674953 0 0 Z " fill="#604D4A" transform="translate(131,62)"/>
<path d="M0 0 C5.875 4.625 5.875 4.625 7 8 C3.7 8 0.4 8 -3 8 C-1.125 1.125 -1.125 1.125 0 0 Z " fill="#DFE4E5" transform="translate(115,192)"/>
<path d="M0 0 C0.99 0.99 1.98 1.98 3 3 C0.22832981 9.38689218 0.22832981 9.38689218 -3.26953125 11.1328125 C-5.50103134 11.85673221 -7.71142982 12.48653874 -10 13 C-10.33 12.01 -10.66 11.02 -11 10 C-9.741875 9.649375 -8.48375 9.29875 -7.1875 8.9375 C-4.65628409 8.0146142 -3.33240554 7.48723939 -1.80078125 5.2421875 C-0.87959475 3.11319905 -0.87959475 3.11319905 0 0 Z " fill="#C4AFAC" transform="translate(134,84)"/>
<path d="M0 0 C1.32 0.33 2.64 0.66 4 1 C4 1.99 4 2.98 4 4 C3.34 4 2.68 4 2 4 C2 4.66 2 5.32 2 6 C2.66 6.33 3.32 6.66 4 7 C3 8 3 8 0.5625 8.1875 C-2 8 -2 8 -4 6 C-3.625 3.875 -3.625 3.875 -3 2 C-2.01 2 -1.02 2 0 2 C0 1.34 0 0.68 0 0 Z " fill="#98919A" transform="translate(122,79)"/>
<path d="M0 0 C5.46640234 2.80780467 5.46640234 2.80780467 6.625 5.125 C-1.73763184 2.50470869 -1.73763184 2.50470869 -5.3125 0.375 C-9.78000547 -1.44847162 -13.69812799 -0.64215489 -18.375 0.125 C-12.76658785 -5.48341215 -6.2235017 -3.0414497 0 0 Z " fill="#524345" transform="translate(81.375,61.875)"/>
<path d="M0 0 C0.74056641 0.00902344 1.48113281 0.01804687 2.24414062 0.02734375 C4.05873467 0.05075787 5.87316071 0.08662385 7.6875 0.125 C7.6875 0.785 7.6875 1.445 7.6875 2.125 C6.65109375 2.18558594 5.6146875 2.24617188 4.546875 2.30859375 C3.17707127 2.39303371 1.80728025 2.47767997 0.4375 2.5625 C-0.58537109 2.62147461 -0.58537109 2.62147461 -1.62890625 2.68164062 C-4.39533356 2.85622099 -6.99521332 3.03622277 -9.671875 3.78515625 C-10.21328125 3.89730469 -10.7546875 4.00945312 -11.3125 4.125 C-11.9725 3.465 -12.6325 2.805 -13.3125 2.125 C-8.90220217 -0.08449832 -4.82309676 -0.1120648 0 0 Z " fill="#3B2E2C" transform="translate(124.3125,67.875)"/>
<path d="M0 0 C2.99291115 1.39082342 5.50012472 3.02282365 8.109375 5.0390625 C8.86347656 5.61914062 9.61757812 6.19921875 10.39453125 6.796875 C11.17183594 7.40015625 11.94914062 8.0034375 12.75 8.625 C13.54277344 9.23601562 14.33554688 9.84703125 15.15234375 10.4765625 C17.10390608 11.98138165 19.05300989 13.48927284 21 15 C20.34 15.66 19.68 16.32 19 17 C16.76858068 15.10676602 14.53984004 13.21052304 12.3125 11.3125 C11.68666016 10.78205078 11.06082031 10.25160156 10.41601562 9.70507812 C6.78310882 6.60474405 3.32614076 3.4278965 0 0 Z " fill="#2E8997" transform="translate(68,159)"/>
<path d="M0 0 C0.99 0.33 1.98 0.66 3 1 C2.071875 1.61875 2.071875 1.61875 1.125 2.25 C-1.06768281 4.05573879 -1.92788417 5.4090534 -3 8 C-3 7.34 -3 6.68 -3 6 C-3.721875 6.7425 -4.44375 7.485 -5.1875 8.25 C-7.68592573 10.69290515 -10.23643202 12.8681047 -13 15 C-11.58884686 11.87729974 -9.889376 9.50346319 -7.625 6.9375 C-7.03976563 6.26589844 -6.45453125 5.59429687 -5.8515625 4.90234375 C-3.98966036 2.98937678 -2.28425867 1.3878464 0 0 Z " fill="#1A8293" transform="translate(91,185)"/>
<path d="M0 0 C1.32 0.33 2.64 0.66 4 1 C4.33 2.32 4.66 3.64 5 5 C4.34 5 3.68 5 3 5 C3 5.66 3 6.32 3 7 C1.35 6.67 -0.3 6.34 -2 6 C-2 3 -2 3 0 1 C0 0.67 0 0.34 0 0 Z " fill="#556378" transform="translate(76,78)"/>
<path d="M0 0 C0.65226562 0.13277344 1.30453125 0.26554687 1.9765625 0.40234375 C6.6408287 1.34482822 11.29868454 2.25768703 16 3 C12.73454239 4.88391785 9.71888239 5.49287967 6 6 C5.67 5.01 5.34 4.02 5 3 C2.49552484 1.78130071 2.49552484 1.78130071 0 1 C0 0.67 0 0.34 0 0 Z " fill="#645664" transform="translate(84,113)"/>
<path d="M0 0 C-1.32 0.33 -2.64 0.66 -4 1 C-4 1.66 -4 2.32 -4 3 C-2.68 3.33 -1.36 3.66 0 4 C-3.63 4 -7.26 4 -11 4 C-11.33 3.34 -11.66 2.68 -12 2 C-7.8803623 0.70756464 -4.33168317 -0.26252625 0 0 Z " fill="#74646D" transform="translate(105,116)"/>
<path d="M0 0 C0 2.97 0 5.94 0 9 C-4.875 4.25 -4.875 4.25 -6 2 C-1.125 0 -1.125 0 0 0 Z " fill="#C5C8C8" transform="translate(67,149)"/>
<path d="M0 0 C2.475 0.495 2.475 0.495 5 1 C3.02 5.455 3.02 5.455 1 10 C0.67 10 0.34 10 0 10 C0 6.7 0 3.4 0 0 Z " fill="#CACACA" transform="translate(133,149)"/>
<path d="M0 0 C3.96 0.33 7.92 0.66 12 1 C10 3 10 3 7.8359375 3.1953125 C6.61777344 3.16050781 6.61777344 3.16050781 5.375 3.125 C4.55773437 3.10695313 3.74046875 3.08890625 2.8984375 3.0703125 C2.27195312 3.04710938 1.64546875 3.02390625 1 3 C0.67 2.01 0.34 1.02 0 0 Z " fill="#D2DCEC" transform="translate(120,87)"/>
<path d="M0 0 C0.33 0 0.66 0 1 0 C1 3.63 1 7.26 1 11 C-0.32 11 -1.64 11 -3 11 C-2.01 7.37 -1.02 3.74 0 0 Z " fill="#C0886B" transform="translate(131,140)"/>
<path d="M0 0 C0.66 0.33 1.32 0.66 2 1 C2 2.98 2 4.96 2 7 C-3.2734375 10.22265625 -3.2734375 10.22265625 -5 11 C-5.66 10.67 -6.32 10.34 -7 10 C-6.21625 9.278125 -5.4325 8.55625 -4.625 7.8125 C-2.15587562 5.16700959 -1.06739722 3.39626389 0 0 Z " fill="#C7A79D" transform="translate(87,86)"/>
<path d="M0 0 C-0.33 0.99 -0.66 1.98 -1 3 C-1.94875 3.12375 -2.8975 3.2475 -3.875 3.375 C-7.08667191 3.71687177 -7.08667191 3.71687177 -9 6 C-9.66 6 -10.32 6 -11 6 C-11 5.34 -11 4.68 -11 4 C-10.34 4 -9.68 4 -9 4 C-9 3.34 -9 2.68 -9 2 C-5.5647952 -0.29013653 -4.014669 -0.17842973 0 0 Z " fill="#A7BAD3" transform="translate(126,74)"/>
<path d="M0 0 C-7.28571429 3.42857143 -7.28571429 3.42857143 -12 3 C-12 2.34 -12 1.68 -12 1 C-3.96428571 -1.27678571 -3.96428571 -1.27678571 0 0 Z " fill="#138497" transform="translate(35,178)"/>
<path d="M0 0 C0.66 0.33 1.32 0.66 2 1 C-1.3 4.3 -4.6 7.6 -8 11 C-8 7.0234755 -6.61988497 5.9109833 -4 3 C-1.75 1.1875 -1.75 1.1875 0 0 Z " fill="#E3B7A0" transform="translate(67,22)"/>
<path d="M0 0 C3.28788824 3.11016455 5.83735988 6.01618925 8 10 C4.51127585 8.83709195 3.90023136 7.86032391 1.8125 4.9375 C1.28269531 4.20402344 0.75289063 3.47054687 0.20703125 2.71484375 C-0.19128906 2.14894531 -0.58960937 1.58304688 -1 1 C-0.67 0.67 -0.34 0.34 0 0 Z " fill="#1D8698" transform="translate(116,190)"/>
<path d="M0 0 C1.32 0.33 2.64 0.66 4 1 C4 1.99 4 2.98 4 4 C2.35 4.33 0.7 4.66 -1 5 C-1.33 4.01 -1.66 3.02 -2 2 C-1.34 2 -0.68 2 0 2 C0 1.34 0 0.68 0 0 Z " fill="#526177" transform="translate(122,79)"/>
<path d="M0 0 C1.4540625 0.0309375 1.4540625 0.0309375 2.9375 0.0625 C2.9375 0.3925 2.9375 0.7225 2.9375 1.0625 C1.2875 1.0625 -0.3625 1.0625 -2.0625 1.0625 C-1.4025 2.3825 -0.7425 3.7025 -0.0625 5.0625 C-2.55342811 6.30796405 -3.47330733 5.8392578 -6.0625 5.0625 C-3.64893617 0.07446809 -3.64893617 0.07446809 0 0 Z " fill="#A4B1C7" transform="translate(77.0625,74.9375)"/>
<path d="M0 0 C4.43090471 1.20842856 6.98112756 2.51668565 10 6 C8.5164999 5.57742724 7.03823576 5.13643678 5.5625 4.6875 C4.73878906 4.44386719 3.91507812 4.20023437 3.06640625 3.94921875 C2.04353516 3.47935547 2.04353516 3.47935547 1 3 C0.67 2.01 0.34 1.02 0 0 Z " fill="#42363B" transform="translate(78,61)"/>
<path d="M0 0 C4.43458973 1.3937282 6.87378374 3.60582235 10 7 C6.433255 7 5.89456323 6.36308045 3.3125 4.0625 C2.68988281 3.51722656 2.06726563 2.97195312 1.42578125 2.41015625 C0.95527344 1.94480469 0.48476562 1.47945312 0 1 C0 0.67 0 0.34 0 0 Z " fill="#178192" transform="translate(88,175)"/>
<path d="M0 0 C1.04005702 3.38018531 1.08004482 6.4780279 1 10 C0.01 10.33 -0.98 10.66 -2 11 C-2 7.7 -2 4.4 -2 1 C-1.34 0.67 -0.68 0.34 0 0 Z " fill="#CF9D82" transform="translate(127,152)"/>
<path d="M0 0 C0.99 0.33 1.98 0.66 3 1 C3 1.66 3 2.32 3 3 C3.99 3.33 4.98 3.66 6 4 C3.36 4.99 0.72 5.98 -2 7 C-1.67 6.030625 -1.34 5.06125 -1 4.0625 C0.05173363 1.37850426 0.05173363 1.37850426 0 0 Z " fill="#168598" transform="translate(161,173)"/>
<path d="M0 0 C0.99 0 1.98 0 3 0 C3.12375 0.5775 3.2475 1.155 3.375 1.75 C4.00648824 4.02335767 4.88858191 5.9253529 6 8 C0.125 4.375 0.125 4.375 -1 1 C-0.67 0.67 -0.34 0.34 0 0 Z " fill="#16879A" transform="translate(36,173)"/>
<path d="M0 0 C0.66 0 1.32 0 2 0 C2.33 1.32 2.66 2.64 3 4 C2.01 4.33 1.02 4.66 0 5 C-0.66 5.66 -1.32 6.32 -2 7 C-1.125 1.125 -1.125 1.125 0 0 Z " fill="#A3ABBD" transform="translate(119,77)"/>
<path d="M0 0 C0.66 0.66 1.32 1.32 2 2 C0.9275 1.979375 -0.145 1.95875 -1.25 1.9375 C-4.79575381 1.84356237 -4.79575381 1.84356237 -7.3125 2.625 C-7.869375 2.74875 -8.42625 2.8725 -9 3 C-9.66 2.34 -10.32 1.68 -11 1 C-7.07703567 -0.30765478 -4.13997567 -0.1971417 0 0 Z " fill="#463A3E" transform="translate(131,62)"/>
<path d="M0 0 C-0.33 0.66 -0.66 1.32 -1 2 C-3.31 2 -5.62 2 -8 2 C-8 1.34 -8 0.68 -8 0 C-4.94736336 -0.98120464 -3.05263664 -0.98120464 0 0 Z " fill="#645764" transform="translate(109,117)"/>
<path d="M0 0 C-2.39509338 2.89932357 -4.31245243 3.50168276 -8 4 C-8.33 3.01 -8.66 2.02 -9 1 C-5.8035914 -0.06546953 -3.34252724 -0.07427838 0 0 Z " fill="#DBB9AB" transform="translate(132,93)"/>
<path d="M0 0 C-1 3 -1 3 -3 4 C-4.99960012 4.039992 -7.00047242 4.04346799 -9 4 C-3 0 -3 0 0 0 Z " fill="#422E26" transform="translate(88,94)"/>
</svg>
