<?xml version="1.0" standalone="no"?>
<!DOCTYPE svg PUBLIC "-//W3C//DTD SVG 20010904//EN"
 "http://www.w3.org/TR/2001/REC-SVG-20010904/DTD/svg10.dtd">
<svg version="1.0" xmlns="http://www.w3.org/2000/svg"
 width="400.000000pt" height="400.000000pt" viewBox="0 0 400.000000 400.000000"
 preserveAspectRatio="xMidYMid meet">
<metadata>
Created by potrace 1.14, written by Peter Selinger 2001-2017
</metadata>
<g transform="translate(0.000000,400.000000) scale(0.100000,-0.100000)"
fill="#000000" stroke="none">
<path d="M1387 2555 c-37 -14 -173 -100 -183 -117 -10 -15 11 -8 85 29 70 36
79 38 170 38 69 0 104 -4 125 -16 29 -16 28 -16 -55 -21 -46 -3 -137 -20 -203
-37 -65 -17 -131 -31 -147 -31 -28 0 -29 -2 -29 -50 0 -35 4 -50 13 -50 31 0
48 -38 57 -125 5 -47 14 -103 21 -123 40 -124 171 -212 314 -212 144 0 255 79
329 234 55 115 61 144 34 173 -35 37 -11 53 81 53 100 0 112 -8 87 -54 -19
-35 -19 -36 5 -108 43 -135 143 -248 253 -284 71 -24 185 -15 253 19 120 61
168 137 183 286 11 104 21 128 56 141 21 8 24 16 24 55 0 45 0 45 -34 45 -19
0 -87 14 -152 31 -66 17 -157 34 -204 38 l-85 6 59 19 c85 27 163 19 266 -29
44 -21 82 -36 85 -33 6 6 -94 77 -155 109 -39 21 -59 24 -140 24 -91 -1 -101
-3 -228 -54 -73 -29 -136 -60 -139 -68 -8 -22 9 -46 38 -54 23 -5 23 -6 -6
-11 -25 -5 -290 -5 -335 1 -10 1 -6 6 10 14 28 14 38 48 18 65 -16 12 -139 62
-228 91 -74 24 -185 27 -243 6z m225 -136 c197 -42 297 -199 224 -355 -48
-103 -127 -166 -229 -182 -159 -25 -293 57 -332 203 -43 157 27 292 172 331
61 16 99 17 165 3z m986 -19 c62 -28 90 -55 118 -115 48 -102 22 -248 -60
-329 -113 -112 -328 -102 -436 22 -43 48 -80 134 -80 184 0 190 260 325 458
238z"/>
<path d="M1535 2280 c10 -17 -14 -38 -35 -33 -25 7 -27 -22 -4 -55 20 -30 74
-31 74 -2 0 13 7 20 20 20 13 0 20 7 20 20 0 26 -34 60 -61 60 -11 0 -17 -4
-14 -10z"/>
<path d="M2450 2271 c0 -23 -23 -34 -39 -18 -8 8 -11 3 -11 -19 0 -37 27 -64
63 -64 20 0 27 5 27 20 0 11 7 20 15 20 21 0 19 43 -3 63 -25 23 -52 22 -52
-2z"/>
<path d="M2328 1758 c-37 -4 -87 -15 -110 -24 -24 -8 -79 -27 -122 -41 l-80
-25 -85 17 c-48 9 -117 28 -156 42 -85 30 -199 40 -278 23 -111 -23 -161 -112
-159 -285 2 -141 47 -316 86 -331 9 -3 24 -30 35 -60 23 -61 58 -120 108 -181
38 -48 54 -54 46 -20 -4 15 12 3 52 -41 58 -64 143 -121 180 -122 11 0 28 -7
39 -15 26 -20 103 -30 129 -17 12 6 54 16 92 22 39 6 93 24 122 40 29 15 50
24 47 19 -28 -46 141 93 202 166 35 41 81 133 135 268 37 92 29 408 -12 474
-47 75 -138 106 -271 91z m106 -100 c56 -56 56 -169 0 -339 -48 -148 -128
-229 -223 -229 -26 0 -51 4 -58 8 -18 11 -35 63 -29 88 6 22 4 23 -103 26
-121 3 -121 3 -121 -64 0 -37 -34 -58 -93 -58 -83 0 -160 52 -229 153 -74 110
-109 229 -88 305 13 50 74 107 132 123 45 12 50 12 268 -36 98 -22 148 -16
390 40 93 22 118 19 154 -17z"/>
<path d="M1675 1431 c-2 -5 1 -13 8 -19 27 -21 61 -23 127 -7 64 16 73 16 117
1 58 -20 81 -20 126 -1 48 20 76 19 159 -6 54 -17 79 -20 106 -13 46 12 54 32
11 26 -18 -3 -70 1 -116 8 -66 11 -97 11 -147 2 -53 -10 -76 -9 -130 3 -55 13
-77 13 -130 4 -46 -9 -72 -9 -94 -1 -18 6 -34 7 -37 3z"/>
<path d="M2520 913 c-69 -183 -100 -221 -375 -460 l-140 -122 -50 48 c-27 27
-105 94 -171 149 -187 156 -241 223 -284 352 -20 60 -40 98 -40 74 0 -24 44
-143 71 -195 48 -89 112 -162 272 -309 141 -129 146 -135 120 -141 -62 -14
-97 -39 -202 -152 -106 -113 -141 -157 -123 -157 4 0 28 22 54 49 57 61 120
109 125 96 2 -6 16 -39 31 -75 l28 -65 173 0 172 0 31 73 c16 39 33 72 38 72
4 0 42 -33 84 -73 42 -41 76 -71 76 -68 0 11 -64 85 -125 147 -33 33 -74 76
-91 95 -18 20 -48 40 -75 49 -24 7 -47 16 -52 20 -4 3 67 74 157 158 187 173
240 243 291 385 30 83 34 90 43 67 5 -14 28 -81 51 -150 l43 -125 -37 -160
c-30 -133 -100 -408 -121 -478 -5 -15 -1 -18 17 -15 27 3 27 4 94 263 58 221
87 360 86 413 l0 42 62 -42 c34 -23 105 -68 159 -98 l96 -56 -43 -43 -43 -42
-107 76 c-60 41 -110 73 -112 71 -8 -8 199 -186 275 -236 l23 -15 -76 -165
-75 -165 26 -3 c15 -2 30 0 35 5 13 13 139 316 139 334 0 10 -23 31 -50 49
-47 30 -50 34 -35 50 19 21 12 22 382 -70 213 -54 310 -86 371 -126 l22 -15
-39 -52 c-39 -52 -91 -147 -91 -167 0 -5 11 -10 24 -10 20 0 27 10 50 73 15
40 38 90 52 110 20 31 31 37 59 37 44 0 53 -17 68 -131 10 -83 13 -89 34 -89
19 0 22 4 19 22 -3 13 -8 46 -11 73 -14 108 -25 136 -62 152 -19 7 -43 11 -54
8 -11 -4 -47 8 -91 29 -69 34 -111 45 -677 181 l-24 6 22 23 c26 28 27 43 1
51 -26 8 -157 94 -261 171 -48 35 -95 64 -106 64 -16 0 -28 19 -59 95 -22 52
-42 95 -45 95 -4 0 -17 -26 -29 -57z"/>
<path d="M1400 841 c-16 -35 -30 -51 -48 -56 -13 -3 -60 -33 -103 -65 -98 -75
-259 -180 -276 -180 -19 0 -16 -11 13 -41 l26 -27 -34 -7 c-217 -45 -614 -150
-668 -177 -39 -19 -82 -32 -107 -33 -60 -1 -79 -23 -93 -108 -24 -154 -24
-147 -2 -147 17 0 20 10 26 73 10 107 22 144 49 149 51 8 64 -1 100 -75 19
-40 40 -89 47 -109 9 -30 17 -38 36 -38 13 0 24 5 24 11 0 20 -62 134 -96 175
l-34 42 33 20 c17 12 55 30 82 42 49 21 384 110 557 148 83 19 88 19 103 2 15
-16 12 -20 -35 -50 -27 -18 -50 -39 -50 -49 0 -9 31 -88 68 -176 66 -157 68
-160 100 -163 17 -2 32 -2 32 1 0 2 -25 59 -56 128 -31 68 -64 143 -74 165
l-18 42 86 65 c84 62 233 196 202 181 -8 -4 -56 -36 -105 -70 -50 -34 -95 -64
-100 -66 -6 -2 -29 16 -52 39 l-43 43 58 29 c31 16 102 59 157 95 l100 65 6
-67 c8 -75 72 -357 123 -532 28 -101 35 -115 56 -118 19 -3 22 0 16 15 -13 31
-123 473 -141 563 l-17 85 42 109 c43 115 49 149 10 67z"/>
</g>
</svg>
